<?xml version="1.0" encoding="utf-8"?>
<!-- Generator: Adobe Adobe Illustrator 24.2.0, SVG Export Plug-In . SVG Version: 6.00 Build 0)  -->
<svg version="1.1" id="Calque_1" xmlns="http://www.w3.org/2000/svg" xmlns:xlink="http://www.w3.org/1999/xlink" x="0px" y="0px"
	 viewBox="0 0 595.28 841.89" style="enable-background:new 0 0 595.28 841.89;" xml:space="preserve">
<style type="text/css">
	.st0{fill:#020202;}
	.st1{fill:#E3831F;}
</style>
<g>
	<path class="st0" d="M121.44,424.18c0.06-4.77,0.2-9.42,0.15-14.07c-0.12-10.75-2.07-21.23-4.99-31.55
		c-0.02-0.06-0.1-0.1-0.36-0.33c-0.61,2.7-1.29,5.26-1.75,7.85c-0.76,4.25-0.62,8.51-0.4,12.82c0.24,4.66-0.3,9.35-0.41,14.03
		c-0.08,3.43,0.05,6.87-0.06,10.29c-0.04,1.33-0.5,2.64-0.72,3.97c-0.08,0.49-0.09,1.01-0.03,1.5c0.19,1.45,0.46,2.89,0.65,4.35
		c0.13,1.02-0.39,1.48-1.41,1.66c-0.49,0.09-1.09,0.47-1.34,0.9c-1.11,1.9-4.86,3.3-6.91,2.49c-1.01-0.4-1.5-1.63-0.88-2.89
		c0.62-1.28,1.52-2.42,2.27-3.63c0.56-0.89,1.27-1.75,1.58-2.73c0.31-0.99,0.35-2.12,0.28-3.17c-0.24-3.28-0.7-6.54-0.88-9.82
		c-0.32-5.66-0.3-11.35-0.79-17c-0.44-5.11-1.39-10.17-2.06-15.26c-0.16-1.27-0.58-2.07-1.77-2.8c-2.44-1.5-3.16-4.12-3.57-6.79
		c-0.14-0.93-0.2-1.88-0.59-2.68c-0.18-0.28-0.47-0.55-0.51-0.84c-0.23-2.22-0.56-4.44-0.57-6.66c-0.02-8.86,0.55-17.69,1.89-26.45
		c0.32-2.11,1.05-4.16,1.55-6.25c0.29-1.23,1.14-1.83,2.2-2.34c2.21-1.05,4.44-2.09,6.54-3.34c0.7-0.42,1.1-1.4,1.54-2.18
		c0.53-0.93,0.38-2.26,1.66-2.76c0.11-0.04,0.13-0.41,0.13-0.62c0-0.72-0.01-1.44-0.05-2.16c-0.05-0.84-0.15-1.54-0.86-2.26
		c-0.6-0.61-0.8-1.78-0.87-2.72c-0.12-1.71-0.14-3.45,0.02-5.16c0.13-1.38,0.78-2.31,2.19-3.2c2.16-1.36,4.26-1.63,6.53-1.22
		c0.89,0.16,1.69,0.97,2.46,1.59c2.27,1.82,1.88,4.14,1.55,6.68c-0.14,1.05-0.13,2.18-0.5,3.21c-0.2,0.55-0.75,0.96-1,1.5
		c-0.23,0.49-0.31,1.05-0.38,1.59c-0.46,3.62,0.79,5.84,4.21,7.28c1.63,0.69,3.33,1.23,5.03,1.72c1.66,0.49,2.6,1.64,3.07,3.17
		c1.78,5.84,3.54,11.69,5.21,17.56c0.94,3.3,0.1,6.45-1.35,9.43c-1.56,3.19-3.2,6.33-4.82,9.49c-0.13,0.25-0.38,0.58-0.6,0.61
		c-1.42,0.15-1.44,1.45-2.1,2.27c-1.32,1.65-0.83,3.33-0.56,5c1.05,6.65,1.04,13.34,0.75,20.03c-0.46,10.43-1.21,20.84-0.94,31.3
		c0.07,2.71,1.25,4.05,3.06,5.41c1.36,1.02,2.75,2.01,3.99,3.15c0.44,0.4,0.81,1.39,0.61,1.84c-0.23,0.54-1.11,1.1-1.72,1.12
		c-1.56,0.05-3.19,0.01-4.69-0.38c-2.44-0.64-4.81-1.55-7.17-2.44c-0.4-0.15-0.86-0.8-0.85-1.21c0.02-1.64,0.21-3.28,0.36-5.14
		C121.29,427.21,121.42,425.73,121.44,424.18z M103.92,359.83c0.57-3.4,1.2-6.8,0.68-10.26c-0.21,0.92-0.33,1.86-0.5,2.78
		c-1,5.38-2.19,10.74-2.02,16.26c0.04,1.4,0.4,2.79,0.62,4.19c0.2-0.02,0.4-0.04,0.61-0.05c0.08-2.47,0.14-4.95,0.25-7.42
		C103.63,363.56,103.78,361.8,103.92,359.83z M132.4,350.26c-0.88-2.33-1.77-4.67-2.65-7c-0.11,0.02-0.23,0.04-0.34,0.06
		c0.21,5.06,0.43,10.11,0.66,15.59c0.92-2.96,1.72-5.56,2.52-8.16C132.6,350.65,132.51,350.53,132.4,350.26z"/>
</g>
<g>
	<path class="st0" d="M181.44,424.18c0.06-4.77,0.2-9.42,0.15-14.07c-0.12-10.75-2.07-21.23-4.99-31.55
		c-0.02-0.06-0.1-0.1-0.36-0.33c-0.61,2.7-1.29,5.26-1.75,7.85c-0.76,4.25-0.62,8.51-0.4,12.82c0.24,4.66-0.3,9.35-0.41,14.03
		c-0.08,3.43,0.05,6.87-0.06,10.29c-0.04,1.33-0.5,2.64-0.72,3.97c-0.08,0.49-0.09,1.01-0.03,1.5c0.19,1.45,0.46,2.89,0.65,4.35
		c0.13,1.02-0.39,1.48-1.41,1.66c-0.49,0.09-1.09,0.47-1.34,0.9c-1.11,1.9-4.86,3.3-6.91,2.49c-1.01-0.4-1.5-1.63-0.88-2.89
		c0.62-1.28,1.52-2.42,2.27-3.63c0.56-0.89,1.27-1.75,1.58-2.73c0.31-0.99,0.35-2.12,0.28-3.17c-0.24-3.28-0.7-6.54-0.88-9.82
		c-0.32-5.66-0.3-11.35-0.79-17c-0.44-5.11-1.39-10.17-2.06-15.26c-0.16-1.27-0.58-2.07-1.77-2.8c-2.44-1.5-3.16-4.12-3.57-6.79
		c-0.14-0.93-0.2-1.88-0.59-2.68c-0.18-0.28-0.47-0.55-0.51-0.84c-0.23-2.22-0.56-4.44-0.57-6.66c-0.02-8.86,0.55-17.69,1.89-26.45
		c0.32-2.11,1.05-4.16,1.55-6.25c0.29-1.23,1.14-1.83,2.2-2.34c2.21-1.05,4.44-2.09,6.54-3.34c0.7-0.42,1.1-1.4,1.54-2.18
		c0.53-0.93,0.38-2.26,1.66-2.76c0.11-0.04,0.13-0.41,0.13-0.62c0-0.72-0.01-1.44-0.05-2.16c-0.05-0.84-0.15-1.54-0.86-2.26
		c-0.6-0.61-0.8-1.78-0.87-2.72c-0.12-1.71-0.14-3.45,0.02-5.16c0.13-1.38,0.78-2.31,2.19-3.2c2.16-1.36,4.26-1.63,6.53-1.22
		c0.89,0.16,1.69,0.97,2.46,1.59c2.27,1.82,1.88,4.14,1.55,6.68c-0.14,1.05-0.13,2.18-0.5,3.21c-0.2,0.55-0.75,0.96-1,1.5
		c-0.23,0.49-0.31,1.05-0.38,1.59c-0.46,3.62,0.79,5.84,4.21,7.28c1.63,0.69,3.33,1.23,5.03,1.72c1.66,0.49,2.6,1.64,3.07,3.17
		c1.78,5.84,3.54,11.69,5.21,17.56c0.94,3.3,0.1,6.45-1.35,9.43c-1.56,3.19-3.2,6.33-4.82,9.49c-0.13,0.25-0.38,0.58-0.6,0.61
		c-1.42,0.15-1.44,1.45-2.1,2.27c-1.32,1.65-0.83,3.33-0.56,5c1.05,6.65,1.04,13.34,0.75,20.03c-0.46,10.43-1.21,20.84-0.94,31.3
		c0.07,2.71,1.25,4.05,3.06,5.41c1.36,1.02,2.75,2.01,3.99,3.15c0.44,0.4,0.81,1.39,0.61,1.84c-0.23,0.54-1.11,1.1-1.72,1.12
		c-1.56,0.05-3.19,0.01-4.69-0.38c-2.44-0.64-4.81-1.55-7.17-2.44c-0.4-0.15-0.86-0.8-0.85-1.21c0.02-1.64,0.21-3.28,0.36-5.14
		C181.29,427.21,181.42,425.73,181.44,424.18z M163.92,359.83c0.57-3.4,1.2-6.8,0.68-10.26c-0.21,0.92-0.33,1.86-0.5,2.78
		c-1,5.38-2.19,10.74-2.02,16.26c0.04,1.4,0.4,2.79,0.62,4.19c0.2-0.02,0.4-0.04,0.61-0.05c0.08-2.47,0.14-4.95,0.25-7.42
		C163.63,363.56,163.78,361.8,163.92,359.83z M192.4,350.26c-0.88-2.33-1.77-4.67-2.65-7c-0.11,0.02-0.23,0.04-0.34,0.06
		c0.21,5.06,0.43,10.11,0.66,15.59c0.92-2.96,1.72-5.56,2.52-8.16C192.6,350.65,192.51,350.53,192.4,350.26z"/>
</g>
<g>
	<path class="st0" d="M241.44,424.18c0.06-4.77,0.2-9.42,0.15-14.07c-0.12-10.75-2.07-21.23-4.99-31.55
		c-0.02-0.06-0.1-0.1-0.36-0.33c-0.61,2.7-1.29,5.26-1.75,7.85c-0.76,4.25-0.62,8.51-0.4,12.82c0.24,4.66-0.3,9.35-0.41,14.03
		c-0.08,3.43,0.05,6.87-0.06,10.29c-0.04,1.33-0.5,2.64-0.72,3.97c-0.08,0.49-0.09,1.01-0.03,1.5c0.19,1.45,0.46,2.89,0.65,4.35
		c0.13,1.02-0.39,1.48-1.41,1.66c-0.49,0.09-1.09,0.47-1.34,0.9c-1.11,1.9-4.86,3.3-6.91,2.49c-1.01-0.4-1.5-1.63-0.88-2.89
		c0.62-1.28,1.52-2.42,2.27-3.63c0.56-0.89,1.27-1.75,1.58-2.73c0.31-0.99,0.35-2.12,0.28-3.17c-0.24-3.28-0.7-6.54-0.88-9.82
		c-0.32-5.66-0.3-11.35-0.79-17c-0.44-5.11-1.39-10.17-2.06-15.26c-0.16-1.27-0.58-2.07-1.77-2.8c-2.44-1.5-3.16-4.12-3.57-6.79
		c-0.14-0.93-0.2-1.88-0.59-2.68c-0.18-0.28-0.47-0.55-0.51-0.84c-0.23-2.22-0.56-4.44-0.57-6.66c-0.02-8.86,0.55-17.69,1.89-26.45
		c0.32-2.11,1.05-4.16,1.55-6.25c0.29-1.23,1.14-1.83,2.2-2.34c2.21-1.05,4.44-2.09,6.54-3.34c0.7-0.42,1.1-1.4,1.54-2.18
		c0.53-0.93,0.38-2.26,1.66-2.76c0.11-0.04,0.13-0.41,0.13-0.62c0-0.72-0.01-1.44-0.05-2.16c-0.05-0.84-0.15-1.54-0.86-2.26
		c-0.6-0.61-0.8-1.78-0.87-2.72c-0.12-1.71-0.14-3.45,0.02-5.16c0.13-1.38,0.78-2.31,2.19-3.2c2.16-1.36,4.26-1.63,6.53-1.22
		c0.89,0.16,1.69,0.97,2.46,1.59c2.27,1.82,1.88,4.14,1.55,6.68c-0.14,1.05-0.13,2.18-0.5,3.21c-0.2,0.55-0.75,0.96-1,1.5
		c-0.23,0.49-0.31,1.05-0.38,1.59c-0.46,3.62,0.79,5.84,4.21,7.28c1.63,0.69,3.33,1.23,5.03,1.72c1.66,0.49,2.6,1.64,3.07,3.17
		c1.78,5.84,3.54,11.69,5.21,17.56c0.94,3.3,0.1,6.45-1.35,9.43c-1.56,3.19-3.2,6.33-4.82,9.49c-0.13,0.25-0.38,0.58-0.6,0.61
		c-1.42,0.15-1.44,1.45-2.1,2.27c-1.32,1.65-0.83,3.33-0.56,5c1.05,6.65,1.04,13.34,0.75,20.03c-0.46,10.43-1.21,20.84-0.94,31.3
		c0.07,2.71,1.25,4.05,3.06,5.41c1.36,1.02,2.75,2.01,3.99,3.15c0.44,0.4,0.81,1.39,0.61,1.84c-0.23,0.54-1.11,1.1-1.72,1.12
		c-1.56,0.05-3.19,0.01-4.69-0.38c-2.44-0.64-4.81-1.55-7.17-2.44c-0.4-0.15-0.86-0.8-0.85-1.21c0.02-1.64,0.21-3.28,0.36-5.14
		C241.29,427.21,241.42,425.73,241.44,424.18z M223.92,359.83c0.57-3.4,1.2-6.8,0.68-10.26c-0.21,0.92-0.33,1.86-0.5,2.78
		c-1,5.38-2.19,10.74-2.02,16.26c0.04,1.4,0.4,2.79,0.62,4.19c0.2-0.02,0.4-0.04,0.61-0.05c0.08-2.47,0.14-4.95,0.25-7.42
		C223.63,363.56,223.78,361.8,223.92,359.83z M252.4,350.26c-0.88-2.33-1.77-4.67-2.65-7c-0.11,0.02-0.23,0.04-0.34,0.06
		c0.21,5.06,0.43,10.11,0.66,15.59c0.92-2.96,1.72-5.56,2.52-8.16C252.6,350.65,252.51,350.53,252.4,350.26z"/>
</g>
<g>
	<path class="st0" d="M301.44,424.18c0.06-4.77,0.2-9.42,0.15-14.07c-0.12-10.75-2.07-21.23-4.99-31.55
		c-0.02-0.06-0.1-0.1-0.36-0.33c-0.61,2.7-1.29,5.26-1.75,7.85c-0.76,4.25-0.62,8.51-0.4,12.82c0.24,4.66-0.3,9.35-0.41,14.03
		c-0.08,3.43,0.05,6.87-0.06,10.29c-0.04,1.33-0.5,2.64-0.72,3.97c-0.08,0.49-0.09,1.01-0.03,1.5c0.19,1.45,0.46,2.89,0.65,4.35
		c0.13,1.02-0.39,1.48-1.41,1.66c-0.49,0.09-1.09,0.47-1.34,0.9c-1.11,1.9-4.86,3.3-6.91,2.49c-1.01-0.4-1.5-1.63-0.88-2.89
		c0.62-1.28,1.52-2.42,2.27-3.63c0.56-0.89,1.27-1.75,1.58-2.73c0.31-0.99,0.35-2.12,0.28-3.17c-0.24-3.28-0.7-6.54-0.88-9.82
		c-0.32-5.66-0.3-11.35-0.79-17c-0.44-5.11-1.39-10.17-2.06-15.26c-0.16-1.27-0.58-2.07-1.77-2.8c-2.44-1.5-3.16-4.12-3.57-6.79
		c-0.14-0.93-0.2-1.88-0.59-2.68c-0.18-0.28-0.47-0.55-0.51-0.84c-0.23-2.22-0.56-4.44-0.57-6.66c-0.02-8.86,0.55-17.69,1.89-26.45
		c0.32-2.11,1.05-4.16,1.55-6.25c0.29-1.23,1.14-1.83,2.2-2.34c2.21-1.05,4.44-2.09,6.54-3.34c0.7-0.42,1.1-1.4,1.54-2.18
		c0.53-0.93,0.38-2.26,1.66-2.76c0.11-0.04,0.13-0.41,0.13-0.62c0-0.72-0.01-1.44-0.05-2.16c-0.05-0.84-0.15-1.54-0.86-2.26
		c-0.6-0.61-0.8-1.78-0.87-2.72c-0.12-1.71-0.14-3.45,0.02-5.16c0.13-1.38,0.78-2.31,2.19-3.2c2.16-1.36,4.26-1.63,6.53-1.22
		c0.89,0.16,1.69,0.97,2.46,1.59c2.27,1.82,1.88,4.14,1.55,6.68c-0.14,1.05-0.13,2.18-0.5,3.21c-0.2,0.55-0.75,0.96-1,1.5
		c-0.23,0.49-0.31,1.05-0.38,1.59c-0.46,3.62,0.79,5.84,4.21,7.28c1.63,0.69,3.33,1.23,5.03,1.72c1.66,0.49,2.6,1.64,3.07,3.17
		c1.78,5.84,3.54,11.69,5.21,17.56c0.94,3.3,0.1,6.45-1.35,9.43c-1.56,3.19-3.2,6.33-4.82,9.49c-0.13,0.25-0.38,0.58-0.6,0.61
		c-1.42,0.15-1.44,1.45-2.1,2.27c-1.32,1.65-0.83,3.33-0.56,5c1.05,6.65,1.04,13.34,0.75,20.03c-0.46,10.43-1.21,20.84-0.94,31.3
		c0.07,2.71,1.25,4.05,3.06,5.41c1.36,1.02,2.75,2.01,3.99,3.15c0.44,0.4,0.81,1.39,0.61,1.84c-0.23,0.54-1.11,1.1-1.72,1.12
		c-1.56,0.05-3.19,0.01-4.69-0.38c-2.44-0.64-4.81-1.55-7.17-2.44c-0.4-0.15-0.86-0.8-0.85-1.21c0.02-1.64,0.21-3.28,0.36-5.14
		C301.29,427.21,301.42,425.73,301.44,424.18z M283.92,359.83c0.57-3.4,1.2-6.8,0.68-10.26c-0.21,0.92-0.33,1.86-0.5,2.78
		c-1,5.38-2.19,10.74-2.02,16.26c0.04,1.4,0.4,2.79,0.62,4.19c0.2-0.02,0.4-0.04,0.61-0.05c0.08-2.47,0.14-4.95,0.25-7.42
		C283.63,363.56,283.78,361.8,283.92,359.83z M312.4,350.26c-0.88-2.33-1.77-4.67-2.65-7c-0.11,0.02-0.23,0.04-0.34,0.06
		c0.21,5.06,0.43,10.11,0.66,15.59c0.92-2.96,1.72-5.56,2.52-8.16C312.6,350.65,312.51,350.53,312.4,350.26z"/>
</g>
<g>
	<path class="st0" d="M361.44,424.18c0.06-4.77,0.2-9.42,0.15-14.07c-0.12-10.75-2.07-21.23-4.99-31.55
		c-0.02-0.06-0.1-0.1-0.36-0.33c-0.61,2.7-1.29,5.26-1.75,7.85c-0.76,4.25-0.62,8.51-0.4,12.82c0.24,4.66-0.3,9.35-0.41,14.03
		c-0.08,3.43,0.05,6.87-0.06,10.29c-0.04,1.33-0.5,2.64-0.72,3.97c-0.08,0.49-0.09,1.01-0.03,1.5c0.19,1.45,0.46,2.89,0.65,4.35
		c0.13,1.02-0.39,1.48-1.41,1.66c-0.49,0.09-1.09,0.47-1.34,0.9c-1.11,1.9-4.86,3.3-6.91,2.49c-1.01-0.4-1.5-1.63-0.88-2.89
		c0.62-1.28,1.52-2.42,2.27-3.63c0.56-0.89,1.27-1.75,1.58-2.73c0.31-0.99,0.35-2.12,0.28-3.17c-0.24-3.28-0.7-6.54-0.88-9.82
		c-0.32-5.66-0.3-11.35-0.79-17c-0.44-5.11-1.39-10.17-2.06-15.26c-0.16-1.27-0.58-2.07-1.77-2.8c-2.44-1.5-3.16-4.12-3.57-6.79
		c-0.14-0.93-0.2-1.88-0.59-2.68c-0.18-0.28-0.47-0.55-0.51-0.84c-0.23-2.22-0.56-4.44-0.57-6.66c-0.02-8.86,0.55-17.69,1.89-26.45
		c0.32-2.11,1.05-4.16,1.55-6.25c0.29-1.23,1.14-1.83,2.2-2.34c2.21-1.05,4.44-2.09,6.54-3.34c0.7-0.42,1.1-1.4,1.54-2.18
		c0.53-0.93,0.38-2.26,1.66-2.76c0.11-0.04,0.13-0.41,0.13-0.62c0-0.72-0.01-1.44-0.05-2.16c-0.05-0.84-0.15-1.54-0.86-2.26
		c-0.6-0.61-0.8-1.78-0.87-2.72c-0.12-1.71-0.14-3.45,0.02-5.16c0.13-1.38,0.78-2.31,2.19-3.2c2.16-1.36,4.26-1.63,6.53-1.22
		c0.89,0.16,1.69,0.97,2.46,1.59c2.27,1.82,1.88,4.14,1.55,6.68c-0.14,1.05-0.13,2.18-0.5,3.21c-0.2,0.55-0.75,0.96-1,1.5
		c-0.23,0.49-0.31,1.05-0.38,1.59c-0.46,3.62,0.79,5.84,4.21,7.28c1.63,0.69,3.33,1.23,5.03,1.72c1.66,0.49,2.6,1.64,3.07,3.17
		c1.78,5.84,3.54,11.69,5.21,17.56c0.94,3.3,0.1,6.45-1.35,9.43c-1.56,3.19-3.2,6.33-4.82,9.49c-0.13,0.25-0.38,0.58-0.6,0.61
		c-1.42,0.15-1.44,1.45-2.1,2.27c-1.32,1.65-0.83,3.33-0.56,5c1.05,6.65,1.04,13.34,0.75,20.03c-0.46,10.43-1.21,20.84-0.94,31.3
		c0.07,2.71,1.25,4.05,3.06,5.41c1.36,1.02,2.75,2.01,3.99,3.15c0.44,0.4,0.81,1.39,0.61,1.84c-0.23,0.54-1.11,1.1-1.72,1.12
		c-1.56,0.05-3.19,0.01-4.69-0.38c-2.44-0.64-4.81-1.55-7.17-2.44c-0.4-0.15-0.86-0.8-0.85-1.21c0.02-1.64,0.21-3.28,0.36-5.14
		C361.29,427.21,361.42,425.73,361.44,424.18z M343.92,359.83c0.57-3.4,1.2-6.8,0.68-10.26c-0.21,0.92-0.33,1.86-0.5,2.78
		c-1,5.38-2.19,10.74-2.02,16.26c0.04,1.4,0.4,2.79,0.62,4.19c0.2-0.02,0.4-0.04,0.61-0.05c0.08-2.47,0.14-4.95,0.25-7.42
		C343.63,363.56,343.78,361.8,343.92,359.83z M372.4,350.26c-0.88-2.33-1.77-4.67-2.65-7c-0.11,0.02-0.23,0.04-0.34,0.06
		c0.21,5.06,0.43,10.11,0.66,15.59c0.92-2.96,1.72-5.56,2.52-8.16C372.6,350.65,372.51,350.53,372.4,350.26z"/>
</g>
<g>
	<path class="st0" d="M421.44,424.18c0.06-4.77,0.2-9.42,0.15-14.07c-0.12-10.75-2.07-21.23-4.99-31.55
		c-0.02-0.06-0.1-0.1-0.36-0.33c-0.61,2.7-1.29,5.26-1.75,7.85c-0.76,4.25-0.62,8.51-0.4,12.82c0.24,4.66-0.3,9.35-0.41,14.03
		c-0.08,3.43,0.05,6.87-0.06,10.29c-0.04,1.33-0.5,2.64-0.72,3.97c-0.08,0.49-0.09,1.01-0.03,1.5c0.19,1.45,0.46,2.89,0.65,4.35
		c0.13,1.02-0.39,1.48-1.41,1.66c-0.49,0.09-1.09,0.47-1.34,0.9c-1.11,1.9-4.86,3.3-6.91,2.49c-1.01-0.4-1.5-1.63-0.88-2.89
		c0.62-1.28,1.52-2.42,2.27-3.63c0.56-0.89,1.27-1.75,1.58-2.73c0.31-0.99,0.35-2.12,0.28-3.17c-0.24-3.28-0.7-6.54-0.88-9.82
		c-0.32-5.66-0.3-11.35-0.79-17c-0.44-5.11-1.39-10.17-2.06-15.26c-0.16-1.27-0.58-2.07-1.77-2.8c-2.44-1.5-3.16-4.12-3.57-6.79
		c-0.14-0.93-0.2-1.88-0.59-2.68c-0.18-0.28-0.47-0.55-0.51-0.84c-0.23-2.22-0.56-4.44-0.57-6.66c-0.02-8.86,0.55-17.69,1.89-26.45
		c0.32-2.11,1.05-4.16,1.55-6.25c0.29-1.23,1.14-1.83,2.2-2.34c2.21-1.05,4.44-2.09,6.54-3.34c0.7-0.42,1.1-1.4,1.54-2.18
		c0.53-0.93,0.38-2.26,1.66-2.76c0.11-0.04,0.13-0.41,0.13-0.62c0-0.72-0.01-1.44-0.05-2.16c-0.05-0.84-0.15-1.54-0.86-2.26
		c-0.6-0.61-0.8-1.78-0.87-2.72c-0.12-1.71-0.14-3.45,0.02-5.16c0.13-1.38,0.78-2.31,2.19-3.2c2.16-1.36,4.26-1.63,6.53-1.22
		c0.89,0.16,1.69,0.97,2.46,1.59c2.27,1.82,1.88,4.14,1.55,6.68c-0.14,1.05-0.13,2.18-0.5,3.21c-0.2,0.55-0.75,0.96-1,1.5
		c-0.23,0.49-0.31,1.05-0.38,1.59c-0.46,3.62,0.79,5.84,4.21,7.28c1.63,0.69,3.33,1.23,5.03,1.72c1.66,0.49,2.6,1.64,3.07,3.17
		c1.78,5.84,3.54,11.69,5.21,17.56c0.94,3.3,0.1,6.45-1.35,9.43c-1.56,3.19-3.2,6.33-4.82,9.49c-0.13,0.25-0.38,0.58-0.6,0.61
		c-1.42,0.15-1.44,1.45-2.1,2.27c-1.32,1.65-0.83,3.33-0.56,5c1.05,6.65,1.04,13.34,0.75,20.03c-0.46,10.43-1.21,20.84-0.94,31.3
		c0.07,2.71,1.25,4.05,3.06,5.41c1.36,1.02,2.75,2.01,3.99,3.15c0.44,0.4,0.81,1.39,0.61,1.84c-0.23,0.54-1.11,1.1-1.72,1.12
		c-1.56,0.05-3.19,0.01-4.69-0.38c-2.44-0.64-4.81-1.55-7.17-2.44c-0.4-0.15-0.86-0.8-0.85-1.21c0.02-1.64,0.21-3.28,0.36-5.14
		C421.29,427.21,421.42,425.73,421.44,424.18z M403.92,359.83c0.57-3.4,1.2-6.8,0.68-10.26c-0.21,0.92-0.33,1.86-0.5,2.78
		c-1,5.38-2.19,10.74-2.02,16.26c0.04,1.4,0.4,2.79,0.62,4.19c0.2-0.02,0.4-0.04,0.61-0.05c0.08-2.47,0.14-4.95,0.25-7.42
		C403.63,363.56,403.78,361.8,403.92,359.83z M432.4,350.26c-0.88-2.33-1.77-4.67-2.65-7c-0.11,0.02-0.23,0.04-0.34,0.06
		c0.21,5.06,0.43,10.11,0.66,15.59c0.92-2.96,1.72-5.56,2.52-8.16C432.6,350.65,432.51,350.53,432.4,350.26z"/>
</g>
<g>
	<path class="st0" d="M481.44,424.18c0.06-4.77,0.2-9.42,0.15-14.07c-0.12-10.75-2.07-21.23-4.99-31.55
		c-0.02-0.06-0.1-0.1-0.36-0.33c-0.61,2.7-1.29,5.26-1.75,7.85c-0.76,4.25-0.62,8.51-0.4,12.82c0.24,4.66-0.3,9.35-0.41,14.03
		c-0.08,3.43,0.05,6.87-0.06,10.29c-0.04,1.33-0.5,2.64-0.72,3.97c-0.08,0.49-0.09,1.01-0.03,1.5c0.19,1.45,0.46,2.89,0.65,4.35
		c0.13,1.02-0.39,1.48-1.41,1.66c-0.49,0.09-1.09,0.47-1.34,0.9c-1.11,1.9-4.86,3.3-6.91,2.49c-1.01-0.4-1.5-1.63-0.88-2.89
		c0.62-1.28,1.52-2.42,2.27-3.63c0.56-0.89,1.27-1.75,1.58-2.73c0.31-0.99,0.35-2.12,0.28-3.17c-0.24-3.28-0.7-6.54-0.88-9.82
		c-0.32-5.66-0.3-11.35-0.79-17c-0.44-5.11-1.39-10.17-2.06-15.26c-0.16-1.27-0.58-2.07-1.77-2.8c-2.44-1.5-3.16-4.12-3.57-6.79
		c-0.14-0.93-0.2-1.88-0.59-2.68c-0.18-0.28-0.47-0.55-0.51-0.84c-0.23-2.22-0.56-4.44-0.57-6.66c-0.02-8.86,0.55-17.69,1.89-26.45
		c0.32-2.11,1.05-4.16,1.55-6.25c0.29-1.23,1.14-1.83,2.2-2.34c2.21-1.05,4.44-2.09,6.54-3.34c0.7-0.42,1.1-1.4,1.54-2.18
		c0.53-0.93,0.38-2.26,1.66-2.76c0.11-0.04,0.13-0.41,0.13-0.62c0-0.72-0.01-1.44-0.05-2.16c-0.05-0.84-0.15-1.54-0.86-2.26
		c-0.6-0.61-0.8-1.78-0.87-2.72c-0.12-1.71-0.14-3.45,0.02-5.16c0.13-1.38,0.78-2.31,2.19-3.2c2.16-1.36,4.26-1.63,6.53-1.22
		c0.89,0.16,1.69,0.97,2.46,1.59c2.27,1.82,1.88,4.14,1.55,6.68c-0.14,1.05-0.13,2.18-0.5,3.21c-0.2,0.55-0.75,0.96-1,1.5
		c-0.23,0.49-0.31,1.05-0.38,1.59c-0.46,3.62,0.79,5.84,4.21,7.28c1.63,0.69,3.33,1.23,5.03,1.72c1.66,0.49,2.6,1.64,3.07,3.17
		c1.78,5.84,3.54,11.69,5.21,17.56c0.94,3.3,0.1,6.45-1.35,9.43c-1.56,3.19-3.2,6.33-4.82,9.49c-0.13,0.25-0.38,0.58-0.6,0.61
		c-1.42,0.15-1.44,1.45-2.1,2.27c-1.32,1.65-0.83,3.33-0.56,5c1.05,6.65,1.04,13.34,0.75,20.03c-0.46,10.43-1.21,20.84-0.94,31.3
		c0.07,2.71,1.25,4.05,3.06,5.41c1.36,1.02,2.75,2.01,3.99,3.15c0.44,0.4,0.81,1.39,0.61,1.84c-0.23,0.54-1.11,1.1-1.72,1.12
		c-1.56,0.05-3.19,0.01-4.69-0.38c-2.44-0.64-4.81-1.55-7.17-2.44c-0.4-0.15-0.86-0.8-0.85-1.21c0.02-1.64,0.21-3.28,0.36-5.14
		C481.29,427.21,481.42,425.73,481.44,424.18z M463.92,359.83c0.57-3.4,1.2-6.8,0.68-10.26c-0.21,0.92-0.33,1.86-0.5,2.78
		c-1,5.38-2.19,10.74-2.02,16.26c0.04,1.4,0.4,2.79,0.62,4.19c0.2-0.02,0.4-0.04,0.61-0.05c0.08-2.47,0.14-4.95,0.25-7.42
		C463.63,363.56,463.78,361.8,463.92,359.83z M492.4,350.26c-0.88-2.33-1.77-4.67-2.65-7c-0.11,0.02-0.23,0.04-0.34,0.06
		c0.21,5.06,0.43,10.11,0.66,15.59c0.92-2.96,1.72-5.56,2.52-8.16C492.6,350.65,492.51,350.53,492.4,350.26z"/>
</g>
<g>
	<path class="st1" d="M541.44,424.18c0.06-4.77,0.2-9.42,0.15-14.07c-0.12-10.75-2.07-21.23-4.99-31.55
		c-0.02-0.06-0.1-0.1-0.36-0.33c-0.61,2.7-1.29,5.26-1.75,7.85c-0.76,4.25-0.62,8.51-0.4,12.82c0.24,4.66-0.3,9.35-0.41,14.03
		c-0.08,3.43,0.05,6.87-0.06,10.29c-0.04,1.33-0.5,2.64-0.72,3.97c-0.08,0.49-0.09,1.01-0.03,1.5c0.19,1.45,0.46,2.89,0.65,4.35
		c0.13,1.02-0.39,1.48-1.41,1.66c-0.49,0.09-1.09,0.47-1.34,0.9c-1.11,1.9-4.86,3.3-6.91,2.49c-1.01-0.4-1.49-1.63-0.88-2.89
		c0.62-1.28,1.52-2.42,2.27-3.63c0.56-0.89,1.27-1.75,1.58-2.73c0.31-0.99,0.35-2.12,0.28-3.17c-0.24-3.28-0.7-6.54-0.88-9.82
		c-0.32-5.66-0.3-11.35-0.79-17c-0.44-5.11-1.39-10.17-2.06-15.26c-0.16-1.27-0.58-2.07-1.77-2.8c-2.44-1.5-3.16-4.12-3.57-6.79
		c-0.14-0.93-0.2-1.88-0.59-2.68c-0.18-0.28-0.47-0.55-0.51-0.84c-0.23-2.22-0.56-4.44-0.57-6.66c-0.02-8.86,0.55-17.69,1.89-26.45
		c0.32-2.11,1.05-4.16,1.55-6.25c0.29-1.23,1.14-1.83,2.2-2.34c2.21-1.05,4.44-2.09,6.54-3.34c0.7-0.42,1.1-1.4,1.54-2.18
		c0.53-0.93,0.38-2.26,1.66-2.76c0.11-0.04,0.13-0.41,0.13-0.62c0-0.72-0.01-1.44-0.05-2.16c-0.05-0.84-0.15-1.54-0.86-2.26
		c-0.6-0.61-0.8-1.78-0.87-2.72c-0.12-1.71-0.14-3.45,0.02-5.16c0.13-1.38,0.78-2.31,2.19-3.2c2.16-1.36,4.26-1.63,6.53-1.22
		c0.89,0.16,1.69,0.97,2.46,1.59c2.27,1.82,1.88,4.14,1.55,6.68c-0.14,1.05-0.13,2.18-0.5,3.21c-0.2,0.55-0.75,0.96-1,1.5
		c-0.23,0.49-0.31,1.05-0.38,1.59c-0.46,3.62,0.79,5.84,4.21,7.28c1.63,0.69,3.33,1.23,5.03,1.72c1.66,0.49,2.6,1.64,3.07,3.17
		c1.78,5.84,3.54,11.69,5.21,17.56c0.94,3.3,0.1,6.45-1.35,9.43c-1.56,3.19-3.2,6.33-4.82,9.49c-0.13,0.25-0.38,0.58-0.6,0.61
		c-1.42,0.15-1.44,1.45-2.1,2.27c-1.32,1.65-0.83,3.33-0.56,5c1.05,6.65,1.04,13.34,0.75,20.03c-0.46,10.43-1.21,20.84-0.94,31.3
		c0.07,2.71,1.25,4.05,3.06,5.41c1.36,1.02,2.75,2.01,3.99,3.15c0.44,0.4,0.8,1.39,0.61,1.84c-0.23,0.54-1.11,1.1-1.72,1.12
		c-1.56,0.05-3.19,0.01-4.69-0.38c-2.44-0.64-4.81-1.55-7.17-2.44c-0.4-0.15-0.86-0.8-0.85-1.21c0.02-1.64,0.21-3.28,0.36-5.14
		C541.29,427.21,541.42,425.73,541.44,424.18z M523.92,359.83c0.57-3.4,1.2-6.8,0.68-10.26c-0.21,0.92-0.33,1.86-0.5,2.78
		c-1,5.38-2.19,10.74-2.02,16.26c0.04,1.4,0.4,2.79,0.62,4.19c0.2-0.02,0.4-0.04,0.61-0.05c0.08-2.47,0.14-4.95,0.25-7.42
		C523.63,363.56,523.78,361.8,523.92,359.83z M552.4,350.26c-0.88-2.33-1.77-4.67-2.65-7c-0.11,0.02-0.23,0.04-0.34,0.06
		c0.21,5.06,0.43,10.11,0.66,15.59c0.92-2.96,1.72-5.56,2.52-8.16C552.6,350.65,552.51,350.53,552.4,350.26z"/>
</g>
<g>
	<path class="st0" d="M61.44,424.18c0.06-4.77,0.2-9.42,0.15-14.07c-0.12-10.75-2.07-21.23-4.99-31.55c-0.02-0.06-0.1-0.1-0.36-0.33
		c-0.61,2.7-1.29,5.26-1.75,7.85c-0.76,4.25-0.62,8.51-0.4,12.82c0.24,4.66-0.3,9.35-0.41,14.03c-0.08,3.43,0.05,6.87-0.06,10.29
		c-0.04,1.33-0.5,2.64-0.72,3.97c-0.08,0.49-0.09,1.01-0.03,1.5c0.19,1.45,0.46,2.89,0.65,4.35c0.13,1.02-0.39,1.48-1.41,1.66
		c-0.49,0.09-1.09,0.47-1.34,0.9c-1.11,1.9-4.86,3.3-6.91,2.49c-1.01-0.4-1.5-1.63-0.88-2.89c0.62-1.28,1.52-2.42,2.27-3.63
		c0.56-0.89,1.27-1.75,1.58-2.73c0.31-0.99,0.35-2.12,0.28-3.17c-0.24-3.28-0.7-6.54-0.88-9.82c-0.32-5.66-0.3-11.35-0.79-17
		c-0.44-5.11-1.39-10.17-2.06-15.26c-0.16-1.27-0.58-2.07-1.77-2.8c-2.44-1.5-3.16-4.12-3.57-6.79c-0.14-0.93-0.2-1.88-0.59-2.68
		c-0.18-0.28-0.47-0.55-0.51-0.84c-0.23-2.22-0.56-4.44-0.57-6.66c-0.02-8.86,0.55-17.69,1.89-26.45c0.32-2.11,1.05-4.16,1.55-6.25
		c0.29-1.23,1.14-1.83,2.2-2.34c2.21-1.05,4.44-2.09,6.54-3.34c0.7-0.42,1.1-1.4,1.54-2.18c0.53-0.93,0.38-2.26,1.66-2.76
		c0.11-0.04,0.13-0.41,0.13-0.62c0-0.72-0.01-1.44-0.05-2.16c-0.05-0.84-0.15-1.54-0.86-2.26c-0.6-0.61-0.8-1.78-0.87-2.72
		c-0.12-1.71-0.14-3.45,0.02-5.16c0.13-1.38,0.78-2.31,2.19-3.2c2.16-1.36,4.26-1.63,6.53-1.22c0.89,0.16,1.69,0.97,2.46,1.59
		c2.27,1.82,1.88,4.14,1.55,6.68c-0.14,1.05-0.13,2.18-0.5,3.21c-0.2,0.55-0.75,0.96-1,1.5c-0.23,0.49-0.31,1.05-0.38,1.59
		c-0.46,3.62,0.79,5.84,4.21,7.28c1.63,0.69,3.33,1.23,5.03,1.72c1.66,0.49,2.6,1.64,3.07,3.17c1.78,5.84,3.54,11.69,5.21,17.56
		c0.94,3.3,0.1,6.45-1.35,9.43c-1.56,3.19-3.2,6.33-4.82,9.49c-0.13,0.25-0.38,0.58-0.6,0.61c-1.42,0.15-1.44,1.45-2.1,2.27
		c-1.32,1.65-0.83,3.33-0.56,5c1.05,6.65,1.04,13.34,0.75,20.03c-0.46,10.43-1.21,20.84-0.94,31.3c0.07,2.71,1.25,4.05,3.06,5.41
		c1.36,1.02,2.75,2.01,3.99,3.15c0.44,0.4,0.81,1.39,0.61,1.84c-0.23,0.54-1.11,1.1-1.72,1.12c-1.56,0.05-3.19,0.01-4.69-0.38
		c-2.44-0.64-4.81-1.55-7.17-2.44c-0.4-0.15-0.86-0.8-0.85-1.21c0.02-1.64,0.21-3.28,0.36-5.14
		C61.29,427.21,61.42,425.73,61.44,424.18z M43.92,359.83c0.57-3.4,1.2-6.8,0.68-10.26c-0.21,0.92-0.33,1.86-0.5,2.78
		c-1,5.38-2.19,10.74-2.02,16.26c0.04,1.4,0.4,2.79,0.62,4.19c0.2-0.02,0.4-0.04,0.61-0.05c0.08-2.47,0.14-4.95,0.25-7.42
		C43.63,363.56,43.78,361.8,43.92,359.83z M72.4,350.26c-0.88-2.33-1.77-4.67-2.65-7c-0.11,0.02-0.23,0.04-0.34,0.06
		c0.21,5.06,0.43,10.11,0.66,15.59c0.92-2.96,1.72-5.56,2.52-8.16C72.6,350.65,72.51,350.53,72.4,350.26z"/>
</g>
</svg>
