<?xml version="1.0" encoding="utf-8"?>
<!-- Generator: Adobe Adobe Illustrator 24.2.0, SVG Export Plug-In . SVG Version: 6.00 Build 0)  -->
<svg version="1.1" id="Calque_1" xmlns="http://www.w3.org/2000/svg" xmlns:xlink="http://www.w3.org/1999/xlink" x="0px" y="0px"
	 viewBox="0 0 841.89 595.28" style="enable-background:new 0 0 841.89 595.28;" xml:space="preserve">
<style type="text/css">
	.st0{fill:none;}
	.st1{font-family:'Futura-Medium';}
	.st2{font-size:10px;}
	.st3{fill:#EB8E1F;}
	.st4{font-size:9.5149px;}
	.st5{fill:#ED4618;}
	.st6{fill:#E0E0E0;}
	.st7{fill:#DCDCDC;}
	.st8{fill:none;stroke:#000000;stroke-width:2;stroke-miterlimit:10;}
	.st9{fill:#ED9118;}
	.st10{fill:none;stroke:#ED9118;stroke-miterlimit:10;}
	.st11{opacity:0.2;fill:#E0823A;stroke:#ED9118;stroke-miterlimit:10;}
	.st12{fill:none;stroke:#ED4618;stroke-width:2;stroke-miterlimit:10;}
</style>
<rect x="59.18" y="87.76" class="st0" width="132" height="9.99"/>
<text transform="matrix(1 0 0 1 59.1751 96.0085)" class="st1 st2">En million d’unités vendues</text>
<rect x="9.55" y="115.44" class="st0" width="44.72" height="9.03"/>
<text transform="matrix(1 0 0 1 9.5483 123.2837)" class="st3 st1 st4">100 000</text>
<rect x="817.33" y="115.44" class="st0" width="14" height="9.03"/>
<text transform="matrix(1 0 0 1 817.3299 123.2837)" class="st5 st1 st4">20</text>
<rect x="817.33" y="208.05" class="st0" width="14" height="9.03"/>
<text transform="matrix(1 0 0 1 817.3299 215.9016)" class="st5 st1 st4">15</text>
<rect x="817.33" y="300.67" class="st0" width="14" height="9.03"/>
<text transform="matrix(1 0 0 1 817.3299 308.5185)" class="st5 st1 st4">10</text>
<rect x="817.33" y="398.81" class="st0" width="14" height="9.03"/>
<text transform="matrix(1 0 0 1 817.3299 406.6591)" class="st5 st1 st4">5</text>
<rect x="14.46" y="207.47" class="st0" width="44.72" height="9.51"/>
<text transform="matrix(1 0 0 1 14.4556 215.314)" class="st3 st1 st4">75 000</text>
<rect x="14.46" y="301.47" class="st0" width="44.72" height="8.56"/>
<text transform="matrix(1 0 0 1 14.4556 309.3145)" class="st3 st1 st4">50 000</text>
<rect x="14.46" y="394.61" class="st0" width="44.72" height="9.99"/>
<text transform="matrix(1 0 0 1 14.4556 402.459)" class="st3 st1 st4">25 000</text>
<rect x="640.2" y="87.76" class="st0" width="167" height="9.99"/>
<text transform="matrix(1 0 0 1 640.1994 96.0086)" class="st1 st2">prix d’un paquet de cigarettes en €</text>
<rect x="64.82" y="500.27" class="st0" width="711.71" height="19.03"/>
<text transform="matrix(0.87 0 0 1 64.8179 508.1182)" class="st1 st4">2000    2001    2002    2003    2004    2005    2006    2007    2008    2009    2010    2011    2012    2013    2014    2015    2016    2017    2018    2019    2020    2021    2022    </text>
<path class="st6" d="M614.78,120.9c-186.8-0.04-373.38-0.09-559.97-0.14c-0.27,0-0.53-0.16-0.8-0.25c0.12-0.18,0.23-0.37,0.35-0.55
	c250.8,0,501.61,0,752.84,0c-0.56,0.44-0.84,0.82-1.19,0.88c-0.67,0.12-1.38,0.06-2.07,0.06C740.96,120.9,677.97,120.9,614.78,120.9
	z"/>
<path class="st7" d="M54.73,214.1c-0.54-0.34-0.91-0.81-1.33-1.38c1.62-0.12,3.29-0.14,4.97-0.14c248.77,0,497.54,0,746.31,0.01
	c1.13,0,2.26,0.1,3.47,0.61c-0.33,0.18-0.65,0.48-1,0.52c-0.79,0.08-1.59,0.04-2.39,0.04c-248.61,0-497.22,0-745.84,0.01
	C57.58,213.75,56.24,213.9,54.73,214.1z"/>
<path class="st7" d="M726.61,399.41c-224.25,0-448.3,0-672.35,0c0-0.2,0-0.4,0-0.6c250.98,0,501.95,0,752.93,0c0,0.2,0,0.4,0,0.6
	C780.41,399.41,753.61,399.41,726.61,399.41z"/>
<path class="st7" d="M806.18,305.75c0.85,0.16,1.3,0.32,1.83,0.58c-1.61,0.15-3.3,0.23-4.99,0.23
	c-248.01,0.01-496.03,0.01-744.04,0.01c-1.57,0-3.14,0-4.71,0c0-0.27,0-0.54,0.01-0.81c1.7,0,3.41,0,5.11,0
	c166.43,0,332.86,0,499.3,0C641.05,305.77,723.42,305.76,806.18,305.75z"/>
<polyline class="st8" points="53.4,102.75 53.4,492.86 807.2,492.86 807.2,102.75 "/>
<circle class="st9" cx="79.86" cy="185.45" r="4.28"/>
<circle class="st9" cx="139.81" cy="192.44" r="4.28"/>
<circle class="st9" cx="169.92" cy="236.89" r="4.28"/>
<circle class="st9" cx="200.05" cy="289.2" r="4.28"/>
<circle class="st9" cx="230.39" cy="288.59" r="4.28"/>
<circle class="st9" cx="259.92" cy="284.92" r="4.28"/>
<circle class="st9" cx="290.13" cy="288.04" r="4.28"/>
<circle class="st9" cx="320.06" cy="291.56" r="4.28"/>
<circle class="st9" cx="350.04" cy="288.04" r="4.28"/>
<circle class="st9" cx="380.01" cy="288.04" r="4.28"/>
<circle class="st9" cx="410.22" cy="289.65" r="4.28"/>
<circle class="st9" cx="440.45" cy="300.98" r="4.28"/>
<circle class="st9" cx="470.4" cy="315.64" r="4.28"/>
<circle class="st9" cx="500.39" cy="321.25" r="4.28"/>
<circle class="st9" cx="530.6" cy="319.11" r="4.28"/>
<circle class="st9" cx="560.57" cy="325.19" r="4.28"/>
<circle class="st9" cx="590.32" cy="327.41" r="4.28"/>
<circle class="st9" cx="620.53" cy="342.29" r="4.28"/>
<circle class="st9" cx="650.74" cy="353.71" r="4.28"/>
<circle class="st9" cx="680.71" cy="359.68" r="4.28"/>
<circle class="st9" cx="710.7" cy="367.92" r="4.28"/>
<circle class="st9" cx="740.67" cy="373.95" r="4.28"/>
<circle class="st9" cx="770.42" cy="380.79" r="4.28"/>
<circle class="st9" cx="109.56" cy="181.83" r="4.28"/>
<polyline class="st10" points="79.85,186.31 109.41,182.48 140.03,193.09 170.12,237.62 199.71,288.48 230.31,288.48 260.15,284.91 
	290.25,288.38 319.98,291.47 350.07,288.32 379.68,288.07 410.25,288.48 440,301.07 470.11,316.02 500.72,321.06 530.6,318.9 
	560.6,325.14 590.29,327.21 620.74,342.14 650.61,353.72 680.94,359.69 710.42,367.63 740.53,373.9 770.76,380.43 "/>
<polygon class="st11" points="79.85,186.31 109.41,182.48 140.03,193.09 170.12,237.62 199.71,288.48 230.31,288.48 260.15,284.91 
	290.25,288.38 319.98,291.47 350.07,288.32 379.68,288.07 410.25,288.48 440,301.07 470.11,316.02 500.72,321.06 530.6,318.9 
	560.6,325.14 590.29,327.21 620.74,342.14 650.61,353.72 680.94,359.69 710.42,367.63 740.53,373.9 770.76,380.43 770.76,492.86 
	79.85,492.86 "/>
<circle class="st5" cx="79.86" cy="433.5" r="4.28"/>
<circle class="st5" cx="109.56" cy="431.11" r="4.28"/>
<circle class="st5" cx="139.85" cy="426.83" r="4.28"/>
<circle class="st5" cx="169.92" cy="418.07" r="4.28"/>
<circle class="st5" cx="200.05" cy="400.79" r="4.28"/>
<circle class="st5" cx="230.39" cy="400.79" r="4.28"/>
<circle class="st5" cx="259.92" cy="400.79" r="4.28"/>
<circle class="st5" cx="290.13" cy="398.33" r="4.28"/>
<circle class="st5" cx="290.13" cy="398.33" r="4.28"/>
<circle class="st5" cx="320.06" cy="394.05" r="4.28"/>
<circle class="st5" cx="350.04" cy="394.05" r="4.28"/>
<circle class="st5" cx="380.01" cy="388.59" r="4.28"/>
<circle class="st5" cx="410.22" cy="382.41" r="4.28"/>
<circle class="st5" cx="440.45" cy="375.65" r="4.28"/>
<circle class="st5" cx="470.4" cy="368.15" r="4.28"/>
<circle class="st5" cx="500.39" cy="362.61" r="4.28"/>
<circle class="st5" cx="530.6" cy="362.61" r="4.28"/>
<circle class="st5" cx="560.57" cy="362.61" r="4.28"/>
<circle class="st5" cx="590.32" cy="360.89" r="4.28"/>
<circle class="st5" cx="620.53" cy="345.55" r="4.28"/>
<circle class="st5" cx="650.74" cy="329.3" r="4.28"/>
<circle class="st5" cx="680.71" cy="307.05" r="4.28"/>
<circle class="st5" cx="710.7" cy="296.8" r="4.28"/>
<circle class="st5" cx="740.67" cy="296.8" r="4.28"/>
<circle class="st5" cx="770.42" cy="284.91" r="4.28"/>
<polyline class="st12" points="770.76,284.91 740.41,297.94 710.05,297.32 680.58,307.3 650.46,329.49 620.96,345.64 590.29,361.33 
	560.57,362.61 530.16,362.69 500.39,362.61 470.72,368.76 440.17,376.5 410.87,382.99 379.9,389.9 349.55,395.55 320.46,394.29 
	290.74,399.1 259.77,401.62 229.13,401.45 199.59,401.69 169.55,418.68 139.76,426.8 109.98,432.71 80.19,434.19 "/>
</svg>
