<?xml version="1.0" encoding="utf-8"?>
<!-- Generator: Adobe Adobe Illustrator 24.2.0, SVG Export Plug-In . SVG Version: 6.00 Build 0)  -->
<svg version="1.1" id="OBJECTS" xmlns="http://www.w3.org/2000/svg" xmlns:xlink="http://www.w3.org/1999/xlink" x="0px" y="0px"
	 viewBox="0 0 500 500" style="enable-background:new 0 0 500 500;" xml:space="preserve">
<style type="text/css">
	.st0{opacity:0.8196;fill:#FFA523;}
	.st1{opacity:0.8196;fill:#FF3169;}
	.st2{opacity:0.8196;fill:#00A0CF;}
	.st3{opacity:0.8196;fill:#9F49A3;}
	.st4{opacity:0.8196;fill:#33B500;}
	.st5{opacity:0.8196;fill:#00B4B0;}
</style>
<g>
	<path class="st0" d="M245.12,48.54c0,0-26.43,0.45-46.7,6.73c-1.19,0.37,52.04,183.62,52.04,183.62L245.12,48.54z"/>
	<path class="st1" d="M445.76,298.26c33.5-158.52-93.18-249.76-192.4-249.76l3.53,198.29L445.76,298.26z"/>
	<path class="st2" d="M313.41,440.82c76.6-26.94,113.94-81.53,130.47-135.57l-187-48.32L313.41,440.82z"/>
	<path class="st3" d="M307.07,442.79l-56.6-183.7L116.88,400.12C151.58,431.55,225.58,468.69,307.07,442.79z"/>
	<path class="st4" d="M245.64,246.79c0,0-37.3-123.17-57.55-188.46C124.41,79.06,73.34,130.96,55.76,198.78
		C54.54,203.47,245.64,246.79,245.64,246.79z"/>
	<path class="st5" d="M245.64,254.29c0,0-125.91-28.43-192.81-42.45c-8.95,40.76-8.35,116.35,57.1,181.81L245.64,254.29z"/>
</g>
</svg>
